<?xml version="1.0" encoding="UTF-8" standalone="no"?>
<svg
   xmlns:dc="http://purl.org/dc/elements/1.1/"
   xmlns:cc="http://creativecommons.org/ns#"
   xmlns:rdf="http://www.w3.org/1999/02/22-rdf-syntax-ns#"
   xmlns:svg="http://www.w3.org/2000/svg"
   xmlns="http://www.w3.org/2000/svg"
   xmlns:sodipodi="http://sodipodi.sourceforge.net/DTD/sodipodi-0.dtd"
   xmlns:inkscape="http://www.inkscape.org/namespaces/inkscape"
   version="1.1"
   x="0"
   y="0"
   width="256"
   height="256"
   viewBox="0, 0, 256, 256"
   id="svg2"
   inkscape:version="0.91 r13725"
   sodipodi:docname="pbrt_volume.svg">
  <metadata
     id="metadata154">
    <rdf:RDF>
      <cc:Work
         rdf:about="">
        <dc:format>image/svg+xml</dc:format>
        <dc:type
           rdf:resource="http://purl.org/dc/dcmitype/StillImage" />
      </cc:Work>
    </rdf:RDF>
  </metadata>
  <sodipodi:namedview
     pagecolor="#ffffff"
     bordercolor="#666666"
     borderopacity="1"
     objecttolerance="10"
     gridtolerance="10"
     guidetolerance="10"
     inkscape:pageopacity="0"
     inkscape:pageshadow="2"
     inkscape:window-width="1265"
     inkscape:window-height="794"
     id="namedview152"
     showgrid="false"
     inkscape:zoom="0.921875"
     inkscape:cx="128"
     inkscape:cy="128"
     inkscape:window-x="0"
     inkscape:window-y="27"
     inkscape:window-maximized="0"
     inkscape:current-layer="svg2" />
  <defs
     id="defs7">
    <radialGradient
       id="Gradient_1"
       gradientUnits="userSpaceOnUse"
       cx="109.729"
       cy="873.838"
       r="93.968"
       gradientTransform="matrix(1.148, 0, 0, 0.221, -3.457, 34.584)">
      <stop
         offset="0"
         stop-color="#2E3436"
         stop-opacity="0.619"
         id="stop10" />
      <stop
         offset="1"
         stop-color="#2E3436"
         stop-opacity="0"
         id="stop12" />
    </radialGradient>
    <linearGradient
       id="Gradient_2"
       gradientUnits="userSpaceOnUse"
       x1="347.412"
       y1="-425.42"
       x2="358.342"
       y2="-408.051"
       gradientTransform="matrix(1.609, 0, 0, 1.422, -440.104, 629.518)">
      <stop
         offset="0"
         stop-color="#FFFFFF"
         id="stop15" />
      <stop
         offset="1"
         stop-color="#FFFFFF"
         stop-opacity="0"
         id="stop17" />
    </linearGradient>
    <linearGradient
       id="Gradient_3"
       gradientUnits="userSpaceOnUse"
       x1="369.235"
       y1="-421.671"
       x2="386.154"
       y2="-395.618"
       gradientTransform="matrix(1.609, 0, 0, 1.422, -429.441, 633.555)">
      <stop
         offset="0"
         stop-color="#FFFFFF"
         id="stop20" />
      <stop
         offset="1"
         stop-color="#FFFFFF"
         stop-opacity="0"
         id="stop22" />
    </linearGradient>
    <linearGradient
       id="Gradient_4"
       gradientUnits="userSpaceOnUse"
       x1="312.517"
       y1="-414.828"
       x2="329.985"
       y2="-397.129"
       gradientTransform="matrix(1.609, 0, 0, 1.422, -450.767, 633.555)">
      <stop
         offset="0"
         stop-color="#FFFFFF"
         id="stop25" />
      <stop
         offset="1"
         stop-color="#FFFFFF"
         stop-opacity="0"
         id="stop27" />
    </linearGradient>
    <linearGradient
       id="Gradient_5"
       gradientUnits="userSpaceOnUse"
       x1="320.329"
       y1="-398.901"
       x2="340.749"
       y2="-372.643"
       gradientTransform="matrix(1.523, 0, 0, 1.346, -404.767, 600.095)">
      <stop
         offset="0"
         stop-color="#FFFFFF"
         id="stop30" />
      <stop
         offset="1"
         stop-color="#FFFFFF"
         stop-opacity="0"
         id="stop32" />
    </linearGradient>
    <linearGradient
       id="Gradient_6"
       gradientUnits="userSpaceOnUse"
       x1="311.053"
       y1="-382.077"
       x2="326.745"
       y2="-368.021"
       gradientTransform="matrix(1.38, 0, 0, 1.219, -388.27, 552.068)">
      <stop
         offset="0"
         stop-color="#FFFFFF"
         id="stop35" />
      <stop
         offset="1"
         stop-color="#FFFFFF"
         stop-opacity="0"
         id="stop37" />
    </linearGradient>
    <linearGradient
       id="Gradient_7"
       gradientUnits="userSpaceOnUse"
       x1="337.52"
       y1="-410.568"
       x2="358.263"
       y2="-388.284"
       gradientTransform="matrix(1.839, 0, 0, 1.625, -501.077, 728.499)">
      <stop
         offset="0"
         stop-color="#FFFFFF"
         id="stop40" />
      <stop
         offset="1"
         stop-color="#FFFFFF"
         stop-opacity="0"
         id="stop42" />
    </linearGradient>
    <linearGradient
       id="Gradient_8"
       gradientUnits="userSpaceOnUse"
       x1="340.932"
       y1="-534.928"
       x2="360.549"
       y2="-560.027"
       gradientTransform="matrix(1.609, 0, 0, -1.422, -440.122, -583.868)">
      <stop
         offset="0"
         stop-color="#FFFFFF"
         id="stop45" />
      <stop
         offset="1"
         stop-color="#FFFFFF"
         stop-opacity="0"
         id="stop47" />
    </linearGradient>
    <linearGradient
       id="Gradient_9"
       gradientUnits="userSpaceOnUse"
       x1="372.407"
       y1="-523.779"
       x2="384.179"
       y2="-537.879"
       gradientTransform="matrix(1.609, 0, 0, -1.422, -429.459, -587.905)">
      <stop
         offset="0"
         stop-color="#FFFFFF"
         id="stop50" />
      <stop
         offset="1"
         stop-color="#FFFFFF"
         stop-opacity="0"
         id="stop52" />
    </linearGradient>
    <linearGradient
       id="Gradient_10"
       gradientUnits="userSpaceOnUse"
       x1="312.842"
       y1="-527.513"
       x2="324.794"
       y2="-544.85"
       gradientTransform="matrix(1.609, 0, 0, -1.422, -450.785, -587.905)">
      <stop
         offset="0"
         stop-color="#FFFFFF"
         id="stop55" />
      <stop
         offset="1"
         stop-color="#FFFFFF"
         stop-opacity="0"
         id="stop57" />
    </linearGradient>
    <linearGradient
       id="Gradient_11"
       gradientUnits="userSpaceOnUse"
       x1="323.682"
       y1="-510.556"
       x2="358.355"
       y2="-549.649"
       gradientTransform="matrix(1.523, 0, 0, -1.346, -404.785, -554.446)">
      <stop
         offset="0"
         stop-color="#FFFFFF"
         id="stop60" />
      <stop
         offset="1"
         stop-color="#FFFFFF"
         stop-opacity="0"
         id="stop62" />
    </linearGradient>
    <linearGradient
       id="Gradient_12"
       gradientUnits="userSpaceOnUse"
       x1="309.124"
       y1="-519.971"
       x2="324.816"
       y2="-532.939"
       gradientTransform="matrix(1.38, 0, 0, -1.219, -388.288, -506.418)">
      <stop
         offset="0"
         stop-color="#FFFFFF"
         id="stop65" />
      <stop
         offset="1"
         stop-color="#FFFFFF"
         stop-opacity="0"
         id="stop67" />
    </linearGradient>
    <linearGradient
       id="Gradient_13"
       gradientUnits="userSpaceOnUse"
       x1="336.608"
       y1="-494.262"
       x2="355.151"
       y2="-512.01"
       gradientTransform="matrix(1.839, 0, 0, -1.625, -505.186, -685.56)">
      <stop
         offset="0"
         stop-color="#FFFFFF"
         id="stop70" />
      <stop
         offset="1"
         stop-color="#FFFFFF"
         stop-opacity="0"
         id="stop72" />
    </linearGradient>
    <linearGradient
       id="Gradient_14"
       gradientUnits="userSpaceOnUse"
       x1="357.867"
       y1="-486.857"
       x2="367.791"
       y2="-497.509"
       gradientTransform="matrix(1.839, 0, 0, -1.625, -495.561, -688.523)">
      <stop
         offset="0"
         stop-color="#FFFFFF"
         id="stop75" />
      <stop
         offset="1"
         stop-color="#FFFFFF"
         stop-opacity="0"
         id="stop77" />
    </linearGradient>
    <linearGradient
       id="Gradient_15"
       gradientUnits="userSpaceOnUse"
       x1="302.544"
       y1="-415.655"
       x2="373.454"
       y2="-369.678"
       gradientTransform="matrix(1.452, 0, 0, 1.286, -383.21, 574.384)">
      <stop
         offset="0"
         stop-color="#FFFFFF"
         id="stop80" />
      <stop
         offset="1"
         stop-color="#FFFFFF"
         stop-opacity="0"
         id="stop82" />
    </linearGradient>
    <linearGradient
       id="Gradient_16"
       gradientUnits="userSpaceOnUse"
       x1="151.835"
       y1="200.117"
       x2="142.886"
       y2="179.775">
      <stop
         offset="0"
         stop-color="#5D5B58"
         id="stop85" />
      <stop
         offset="1"
         stop-color="#5D5B58"
         stop-opacity="0"
         id="stop87" />
    </linearGradient>
    <linearGradient
       id="Gradient_17"
       gradientUnits="userSpaceOnUse"
       x1="122.062"
       y1="224.681"
       x2="113.113"
       y2="204.339"
       gradientTransform="matrix(0.917, -0.399, 0.399, 0.917, -4.08, 7.972)">
      <stop
         offset="0"
         stop-color="#74726E"
         id="stop90" />
      <stop
         offset="1"
         stop-color="#5D5B58"
         stop-opacity="0"
         id="stop92" />
    </linearGradient>
  </defs>
  <g
     id="Layer_1">
    <path
       d="M230.417,228.077 C230.423,239.569 182.118,248.886 122.528,248.886 C62.938,248.886 14.633,239.569 14.639,228.077 C14.633,216.585 62.938,207.268 122.528,207.268 C182.118,207.268 230.423,216.585 230.417,228.077 z"
       fill="url(#Gradient_1)"
       id="path9025" />
    <g
       id="path7796">
      <path
         d="M224.641,119.029 C227.379,123.383 232.621,133.662 232.621,138.992 C232.621,150.352 225.222,159.908 214.747,165.101 C216.129,168.586 217.369,172.149 217.369,176.049 C217.369,194.645 200.286,209.737 179.237,209.737 C172.856,209.737 167.127,207.978 161.84,205.526 C157.197,219.505 143.172,229.95 125.854,229.95 C108.536,229.95 94.51,219.505 89.867,205.526 C84.581,207.978 78.851,209.737 72.47,209.737 C51.421,209.737 34.339,194.645 34.339,176.049 C34.339,172.149 35.578,168.586 36.96,165.101 C26.486,159.908 19.086,150.352 19.086,138.992 C19.086,132.948 21.091,118.719 24.175,113.635 C20.862,108.809 19.176,103.613 19.176,98.072 C19.176,86.712 26.576,77.156 37.05,71.963 C35.668,68.478 34.429,64.915 34.429,61.015 C34.429,42.419 51.512,27.327 72.56,27.327 C78.941,27.327 84.671,29.086 89.957,31.538 C94.601,17.559 108.626,7.114 125.944,7.114 C143.262,7.114 157.287,17.559 161.93,31.538 C167.217,29.086 172.946,27.327 179.328,27.327 C200.376,27.327 217.459,42.419 217.459,61.015 C217.459,64.915 216.219,68.478 214.837,71.963 C225.312,77.156 232.711,86.712 232.711,98.072 C232.711,103.254 227.239,114.761 224.641,119.029 z"
         fill="#C4C5C2"
         id="path97" />
      <path
         d="M224.641,119.029 C227.379,123.383 232.621,133.662 232.621,138.992 C232.621,150.352 225.222,159.908 214.747,165.101 C216.129,168.586 217.369,172.149 217.369,176.049 C217.369,194.645 200.286,209.737 179.237,209.737 C172.856,209.737 167.127,207.978 161.84,205.526 C157.197,219.505 143.172,229.95 125.854,229.95 C108.536,229.95 94.51,219.505 89.867,205.526 C84.581,207.978 78.851,209.737 72.47,209.737 C51.421,209.737 34.339,194.645 34.339,176.049 C34.339,172.149 35.578,168.586 36.96,165.101 C26.486,159.908 19.086,150.352 19.086,138.992 C19.086,132.948 21.091,118.719 24.175,113.635 C20.862,108.809 19.176,103.613 19.176,98.072 C19.176,86.712 26.576,77.156 37.05,71.963 C35.668,68.478 34.429,64.915 34.429,61.015 C34.429,42.419 51.512,27.327 72.56,27.327 C78.941,27.327 84.671,29.086 89.957,31.538 C94.601,17.559 108.626,7.114 125.944,7.114 C143.262,7.114 157.287,17.559 161.93,31.538 C167.217,29.086 172.946,27.327 179.328,27.327 C200.376,27.327 217.459,42.419 217.459,61.015 C217.459,64.915 216.219,68.478 214.837,71.963 C225.312,77.156 232.711,86.712 232.711,98.072 C232.711,103.254 227.239,114.761 224.641,119.029 z"
         fill-opacity="0"
         stroke="#6D6E6A"
         stroke-width="7.594"
         stroke-miterlimit="2"
         id="path99" />
    </g>
    <g
       id="g7800">
      <path
         d="M153.024,40.151 C153.024,53.32 140.94,63.996 126.034,63.996 C111.127,63.996 99.044,53.32 99.044,40.151 C99.044,26.982 111.127,16.306 126.034,16.306 C140.94,16.306 153.024,26.982 153.024,40.151 z"
         fill="#C4C5C2"
         id="path7802" />
      <path
         d="M153.024,40.151 C153.024,53.32 140.94,63.996 126.034,63.996 C111.127,63.996 99.044,53.32 99.044,40.151 C99.044,26.982 111.127,16.306 126.034,16.306 C140.94,16.306 153.024,26.982 153.024,40.151 z"
         fill="url(#Gradient_2)"
         id="path7804" />
    </g>
    <path
       d="M52.777,57.185 L207.006,57.185 L207.006,118.5 L52.777,118.5 z"
       fill="#C4C5C2"
       id="rect7806" />
    <path
       d="M75.912,98.062 C75.912,109.35 65.554,118.501 52.777,118.501 C40.001,118.501 29.643,109.35 29.643,98.062 C29.643,86.774 40.001,77.624 52.777,77.624 C65.554,77.624 75.912,86.774 75.912,98.062 z"
       fill="#C4C5C2"
       id="path7808" />
    <g
       id="g7810">
      <path
         d="M207.004,60.589 C207.004,73.758 194.921,84.434 180.014,84.434 C165.108,84.434 153.024,73.758 153.024,60.589 C153.024,47.42 165.108,36.744 180.014,36.744 C194.921,36.744 207.004,47.42 207.004,60.589 z"
         fill="#C4C5C2"
         id="path7812" />
      <path
         d="M207.004,60.59 C207.004,73.759 194.92,84.434 180.014,84.434 C165.108,84.434 153.024,73.759 153.024,60.59 C153.024,47.42 165.108,36.745 180.014,36.745 C194.92,36.745 207.004,47.42 207.004,60.59 z"
         fill="url(#Gradient_3)"
         id="path7814" />
    </g>
    <g
       id="g7816">
      <path
         d="M99.044,60.589 C99.044,73.759 86.96,84.434 72.054,84.434 C57.147,84.434 45.063,73.759 45.063,60.589 C45.063,47.42 57.147,36.745 72.054,36.745 C86.96,36.745 99.044,47.42 99.044,60.589 z"
         fill="#C4C5C2"
         id="path7818" />
      <path
         d="M99.044,60.589 C99.044,73.759 86.96,84.434 72.054,84.434 C57.147,84.434 45.063,73.759 45.063,60.589 C45.063,47.42 57.147,36.745 72.054,36.745 C86.96,36.745 99.044,47.42 99.044,60.589 z"
         fill="url(#Gradient_4)"
         id="path7820" />
    </g>
    <g
       id="g7822">
      <path
         d="M118.081,36.958 C90.479,36.958 68.198,56.855 68.198,81.241 C68.198,97.392 78.604,110.793 93.26,118.498 L143.144,118.498 C157.8,110.793 168.206,97.179 168.206,81.028 C168.206,56.642 145.684,36.958 118.081,36.958 z"
         fill="#C4C5C2"
         id="path7824" />
      <path
         d="M118.322,36.745 C90.654,36.745 68.198,56.584 68.198,81.028 C68.198,97.218 78.569,110.775 93.26,118.498 L143.385,118.498 C158.076,110.775 168.447,97.218 168.447,81.028 C168.447,56.584 145.991,36.745 118.322,36.745 z"
         fill="url(#Gradient_5)"
         id="path7826" />
    </g>
    <path
       d="M75.913,98.061 C75.913,109.349 65.555,118.5 52.778,118.5 C40.002,118.5 29.644,109.349 29.644,98.061 C29.644,86.773 40.002,77.623 52.778,77.623 C65.555,77.623 75.913,86.773 75.913,98.061 z"
       fill="url(#Gradient_6)"
       id="path7828" />
    <g
       id="g7832">
      <path
         d="M183.871,91.249 C183.871,106.3 170.061,118.5 153.025,118.5 C135.989,118.5 122.179,106.3 122.179,91.249 C122.179,76.199 135.989,63.998 153.025,63.998 C170.061,63.998 183.871,76.199 183.871,91.249 z"
         fill="#C4C5C2"
         id="path7834" />
      <path
         d="M183.871,91.249 C183.871,106.3 170.061,118.5 153.025,118.5 C135.989,118.5 122.179,106.3 122.179,91.249 C122.179,76.199 135.989,63.998 153.025,63.998 C170.061,63.998 183.871,76.199 183.871,91.249 z"
         fill="url(#Gradient_7)"
         id="path7836" />
    </g>
    <g
       id="g8014">
      <path
         d="M152.933,197.348 C152.933,184.179 140.849,173.503 125.943,173.503 C111.036,173.503 98.952,184.179 98.952,197.348 C98.952,210.517 111.036,221.193 125.943,221.193 C140.849,221.193 152.933,210.517 152.933,197.348 z"
         fill="#C4C5C2"
         id="path8016" />
      <path
         d="M152.933,197.348 C152.933,184.179 140.849,173.503 125.943,173.503 C111.036,173.503 98.952,184.179 98.952,197.348 C98.952,210.517 111.036,221.193 125.943,221.193 C140.849,221.193 152.933,210.517 152.933,197.348 z"
         fill="url(#Gradient_8)"
         id="path8018" />
    </g>
    <path
       d="M52.685,180.315 L206.914,180.315 L206.914,119 L52.685,119 z"
       fill="#C4C5C2"
       id="rect8020" />
    <path
       d="M75.822,139.437 C75.822,128.149 65.464,118.999 52.687,118.999 C39.91,118.999 29.553,128.149 29.553,139.437 C29.553,150.725 39.91,159.875 52.687,159.875 C65.464,159.875 75.822,150.725 75.822,139.437 z"
       fill="#C4C5C2"
       id="path8022" />
    <g
       id="g8024">
      <path
         d="M206.913,176.91 C206.913,163.741 194.829,153.066 179.923,153.066 C165.017,153.066 152.933,163.741 152.933,176.91 C152.933,190.079 165.017,200.755 179.923,200.755 C194.829,200.755 206.913,190.079 206.913,176.91 z"
         fill="#C4C5C2"
         id="path8026" />
      <path
         d="M206.913,176.91 C206.913,163.741 194.829,153.065 179.923,153.065 C165.016,153.065 152.933,163.741 152.933,176.91 C152.933,190.079 165.016,200.754 179.923,200.754 C194.829,200.754 206.913,190.079 206.913,176.91 z"
         fill="url(#Gradient_9)"
         id="path8028" />
    </g>
    <g
       id="g8030">
      <path
         d="M98.952,176.91 C98.952,163.741 86.869,153.065 71.962,153.065 C57.056,153.065 44.972,163.741 44.972,176.91 C44.972,190.079 57.056,200.754 71.962,200.754 C86.869,200.754 98.952,190.079 98.952,176.91 z"
         fill="#C4C5C2"
         id="path8032" />
      <path
         d="M98.952,176.91 C98.952,163.741 86.869,153.065 71.962,153.065 C57.056,153.065 44.972,163.741 44.972,176.91 C44.972,190.079 57.056,200.754 71.962,200.754 C86.869,200.754 98.952,190.079 98.952,176.91 z"
         fill="url(#Gradient_10)"
         id="path8034" />
    </g>
    <g
       id="g8036">
      <path
         d="M117.99,200.542 C90.388,200.542 68.107,180.644 68.107,156.258 C68.107,140.108 78.513,126.706 93.169,119.001 L143.053,119.001 C157.709,126.706 168.115,140.32 168.115,156.471 C168.115,180.857 145.592,200.542 117.99,200.542 z"
         fill="#C4C5C2"
         id="path8038" />
      <path
         d="M118.231,200.754 C90.563,200.754 68.107,180.916 68.107,156.471 C68.107,140.281 78.478,126.725 93.169,119.001 L143.294,119.001 C157.985,126.725 168.356,140.281 168.356,156.471 C168.356,180.916 145.9,200.754 118.231,200.754 z"
         fill="url(#Gradient_11)"
         id="path8040" />
    </g>
    <path
       d="M75.823,139.438 C75.823,128.151 65.465,119 52.688,119 C39.911,119 29.554,128.151 29.554,139.438 C29.554,150.726 39.911,159.877 52.688,159.877 C65.465,159.877 75.823,150.726 75.823,139.438 z"
       fill="url(#Gradient_12)"
       id="path8042" />
    <g
       id="g8046">
      <path
         d="M163.068,132.526 C163.068,117.476 149.258,105.275 132.222,105.275 C115.187,105.275 101.376,117.476 101.376,132.526 C101.376,147.576 115.187,159.777 132.222,159.777 C149.258,159.777 163.068,147.576 163.068,132.526 z"
         fill="#C4C5C2"
         id="path8048" />
      <path
         d="M163.068,132.526 C163.068,117.476 149.258,105.275 132.222,105.275 C115.187,105.275 101.376,117.476 101.376,132.526 C101.376,147.576 115.187,159.777 132.222,159.777 C149.258,159.777 163.068,147.576 163.068,132.526 z"
         fill="url(#Gradient_13)"
         id="path8050" />
    </g>
    <g
       id="g9017">
      <path
         d="M211.797,117.53 C211.797,102.48 197.987,90.279 180.951,90.279 C163.916,90.279 150.106,102.48 150.106,117.53 C150.106,132.581 163.916,144.781 180.951,144.781 C197.987,144.781 211.797,132.581 211.797,117.53 z"
         fill="#C4C5C2"
         id="path9019" />
      <path
         d="M211.797,117.53 C211.797,102.48 197.987,90.279 180.951,90.279 C163.916,90.279 150.106,102.48 150.106,117.53 C150.106,132.581 163.916,144.781 180.951,144.781 C197.987,144.781 211.797,132.581 211.797,117.53 z"
         fill="url(#Gradient_14)"
         id="path9021" />
    </g>
    <g
       id="path7798">
      <path
         d="M32.276,114.81 C27.249,119.768 26.297,132.635 26.297,139.992 C26.297,149.64 34.472,158.099 44.204,162.838 C42.92,166.019 40.956,170.248 40.956,173.807 C40.956,190.776 54.93,203.843 74.891,203.843 C80.82,203.843 88.287,200.209 93.199,197.972 C98.137,214.297 108.905,224.33 124.995,224.33 C141.086,224.33 153.355,213.88 158.123,198.116 C163.035,200.353 172.191,203.987 178.12,203.987 C197.677,203.987 210.204,190.776 210.204,173.807 C210.204,170.248 208.078,165.27 206.794,162.09 C216.526,157.351 224.7,150.358 224.7,139.992 C224.7,133.201 220.408,127.425 215.788,119.411 C220.254,111.303 224.787,104.345 224.787,97.204 C224.787,86.839 216.613,79.845 206.881,75.106 C208.165,71.926 210.291,66.949 210.291,63.389 C210.291,46.421 194.743,33.656 175.187,33.655 C169.257,33.655 163.122,36.844 158.21,39.08 C153.442,23.317 141.676,14.204 125.586,14.204 C109.495,14.204 98.224,22.899 93.286,39.224 C88.374,36.987 81.914,33.799 75.985,33.799 C56.023,33.799 41.043,46.42 41.043,63.389 C41.043,66.949 43.006,72.07 44.291,75.25 C34.558,79.989 26.384,87.557 26.384,97.204 C26.384,104.346 27.533,109.9 32.276,114.81 z"
         fill="url(#Gradient_15)"
         id="path141" />
      <path
         d="M32.276,114.81 C27.249,119.768 26.297,132.635 26.297,139.992 C26.297,149.64 34.472,158.099 44.204,162.838 C42.92,166.019 40.956,170.248 40.956,173.807 C40.956,190.776 54.93,203.843 74.891,203.843 C80.82,203.843 88.287,200.209 93.199,197.972 C98.137,214.297 108.905,224.33 124.995,224.33 C141.086,224.33 153.355,213.88 158.123,198.116 C163.035,200.353 172.191,203.987 178.12,203.987 C197.677,203.987 210.204,190.776 210.204,173.807 C210.204,170.248 208.078,165.27 206.794,162.09 C216.526,157.351 224.7,150.358 224.7,139.992 C224.7,133.201 220.408,127.425 215.788,119.411 C220.254,111.303 224.787,104.345 224.787,97.204 C224.787,86.839 216.613,79.845 206.881,75.106 C208.165,71.926 210.291,66.949 210.291,63.389 C210.291,46.421 194.743,33.656 175.187,33.655 C169.257,33.655 163.122,36.844 158.21,39.08 C153.442,23.317 141.676,14.204 125.586,14.204 C109.495,14.204 98.224,22.899 93.286,39.224 C88.374,36.987 81.914,33.799 75.985,33.799 C56.023,33.799 41.043,46.42 41.043,63.389 C41.043,66.949 43.006,72.07 44.291,75.25 C34.558,79.989 26.384,87.557 26.384,97.204 C26.384,104.346 27.533,109.9 32.276,114.81 z"
         fill-opacity="0"
         stroke="#FFFFFF"
         stroke-width="5.062"
         stroke-opacity="0.502"
         stroke-miterlimit="2"
         id="path143" />
    </g>
    <path
       d="M165.412,210.913 C145.989,207.747 142.886,179.775 142.886,179.775 C142.886,179.775 151.528,200.921 166.587,203.266 C166.587,203.266 165.412,210.913 165.412,210.913 z"
       fill="url(#Gradient_16)"
       id="path8044" />
    <path
       d="M214.303,169.701 C195.232,174.553 181.217,150.147 181.217,150.147 C181.217,150.147 197.584,166.084 212.327,162.22 C212.327,162.22 214.303,169.701 214.303,169.701 z"
       fill="url(#Gradient_17)"
       id="path9069" />
  </g>
  <g
     id="Layer_2">
    <path
       d="M245.529,123.018 L245.529,243.303 L200.623,243.303 L200.623,217.642 L195.812,212.831 L187.793,212.831 L187.793,243.303 L142.886,243.303 L142.886,123.018 L245.529,123.018 z"
       fill="#FFFFFF"
       id="path148" />
    <path
       d="M242.322,126.225 L242.322,240.095 L203.831,240.095 L203.831,216.038 L197.415,209.623 L184.585,209.623 L184.585,227.265 L184.585,227.265 L184.585,240.095 L146.094,240.095 L146.094,126.225 L242.322,126.225 z M229.491,139.056 L158.924,139.056 L158.924,227.265 L171.755,227.265 L171.755,196.793 L203.831,196.793 L216.661,209.623 L216.661,227.265 L229.491,227.265 L229.491,203.208 C229.491,203.208 216.661,190.377 216.661,190.377 L229.491,177.547 L229.491,139.056 z M216.661,151.886 L216.661,171.132 L203.831,183.962 L171.755,183.962 L171.755,151.886 L216.661,151.886 z M203.831,164.717 L184.585,164.717 L184.585,171.132 L203.831,171.132 L203.831,164.717 z"
       fill="#F34C00"
       id="path150" />
  </g>
</svg>
