<?xml version="1.0" encoding="UTF-8"?>
<!DOCTYPE svg PUBLIC "-//W3C//DTD SVG 1.1//EN" "http://www.w3.org/Graphics/SVG/1.1/DTD/svg11.dtd">
<svg version="1.1" xmlns="http://www.w3.org/2000/svg" xmlns:xlink="http://www.w3.org/1999/xlink" x="0" y="0" width="256" height="256" viewBox="0, 0, 256, 256">
  <defs>
    <radialGradient id="Gradient_1" gradientUnits="userSpaceOnUse" cx="109.729" cy="873.838" r="93.968" gradientTransform="matrix(1.148, 0, 0, 0.221, -3.457, 34.584)">
      <stop offset="0" stop-color="#2E3436" stop-opacity="0.619"/>
      <stop offset="1" stop-color="#2E3436" stop-opacity="0"/>
    </radialGradient>
    <linearGradient id="Gradient_2" gradientUnits="userSpaceOnUse" x1="347.412" y1="-425.42" x2="358.342" y2="-408.051" gradientTransform="matrix(1.609, 0, 0, 1.422, -440.104, 629.518)">
      <stop offset="0" stop-color="#FFFFFF"/>
      <stop offset="1" stop-color="#FFFFFF" stop-opacity="0"/>
    </linearGradient>
    <linearGradient id="Gradient_3" gradientUnits="userSpaceOnUse" x1="369.235" y1="-421.671" x2="386.154" y2="-395.618" gradientTransform="matrix(1.609, 0, 0, 1.422, -429.441, 633.555)">
      <stop offset="0" stop-color="#FFFFFF"/>
      <stop offset="1" stop-color="#FFFFFF" stop-opacity="0"/>
    </linearGradient>
    <linearGradient id="Gradient_4" gradientUnits="userSpaceOnUse" x1="312.517" y1="-414.828" x2="329.985" y2="-397.129" gradientTransform="matrix(1.609, 0, 0, 1.422, -450.767, 633.555)">
      <stop offset="0" stop-color="#FFFFFF"/>
      <stop offset="1" stop-color="#FFFFFF" stop-opacity="0"/>
    </linearGradient>
    <linearGradient id="Gradient_5" gradientUnits="userSpaceOnUse" x1="320.329" y1="-398.901" x2="340.749" y2="-372.643" gradientTransform="matrix(1.523, 0, 0, 1.346, -404.767, 600.095)">
      <stop offset="0" stop-color="#FFFFFF"/>
      <stop offset="1" stop-color="#FFFFFF" stop-opacity="0"/>
    </linearGradient>
    <linearGradient id="Gradient_6" gradientUnits="userSpaceOnUse" x1="311.053" y1="-382.077" x2="326.745" y2="-368.021" gradientTransform="matrix(1.38, 0, 0, 1.219, -388.27, 552.068)">
      <stop offset="0" stop-color="#FFFFFF"/>
      <stop offset="1" stop-color="#FFFFFF" stop-opacity="0"/>
    </linearGradient>
    <linearGradient id="Gradient_7" gradientUnits="userSpaceOnUse" x1="337.52" y1="-410.568" x2="358.263" y2="-388.284" gradientTransform="matrix(1.839, 0, 0, 1.625, -501.077, 728.499)">
      <stop offset="0" stop-color="#FFFFFF"/>
      <stop offset="1" stop-color="#FFFFFF" stop-opacity="0"/>
    </linearGradient>
    <linearGradient id="Gradient_8" gradientUnits="userSpaceOnUse" x1="340.932" y1="-534.928" x2="360.549" y2="-560.027" gradientTransform="matrix(1.609, 0, 0, -1.422, -440.122, -583.868)">
      <stop offset="0" stop-color="#FFFFFF"/>
      <stop offset="1" stop-color="#FFFFFF" stop-opacity="0"/>
    </linearGradient>
    <linearGradient id="Gradient_9" gradientUnits="userSpaceOnUse" x1="372.407" y1="-523.779" x2="384.179" y2="-537.879" gradientTransform="matrix(1.609, 0, 0, -1.422, -429.459, -587.905)">
      <stop offset="0" stop-color="#FFFFFF"/>
      <stop offset="1" stop-color="#FFFFFF" stop-opacity="0"/>
    </linearGradient>
    <linearGradient id="Gradient_10" gradientUnits="userSpaceOnUse" x1="312.842" y1="-527.513" x2="324.794" y2="-544.85" gradientTransform="matrix(1.609, 0, 0, -1.422, -450.785, -587.905)">
      <stop offset="0" stop-color="#FFFFFF"/>
      <stop offset="1" stop-color="#FFFFFF" stop-opacity="0"/>
    </linearGradient>
    <linearGradient id="Gradient_11" gradientUnits="userSpaceOnUse" x1="323.682" y1="-510.556" x2="358.355" y2="-549.649" gradientTransform="matrix(1.523, 0, 0, -1.346, -404.785, -554.446)">
      <stop offset="0" stop-color="#FFFFFF"/>
      <stop offset="1" stop-color="#FFFFFF" stop-opacity="0"/>
    </linearGradient>
    <linearGradient id="Gradient_12" gradientUnits="userSpaceOnUse" x1="309.124" y1="-519.971" x2="324.816" y2="-532.939" gradientTransform="matrix(1.38, 0, 0, -1.219, -388.288, -506.418)">
      <stop offset="0" stop-color="#FFFFFF"/>
      <stop offset="1" stop-color="#FFFFFF" stop-opacity="0"/>
    </linearGradient>
    <linearGradient id="Gradient_13" gradientUnits="userSpaceOnUse" x1="336.608" y1="-494.262" x2="355.151" y2="-512.01" gradientTransform="matrix(1.839, 0, 0, -1.625, -505.186, -685.56)">
      <stop offset="0" stop-color="#FFFFFF"/>
      <stop offset="1" stop-color="#FFFFFF" stop-opacity="0"/>
    </linearGradient>
    <linearGradient id="Gradient_14" gradientUnits="userSpaceOnUse" x1="357.867" y1="-486.857" x2="367.791" y2="-497.509" gradientTransform="matrix(1.839, 0, 0, -1.625, -495.561, -688.523)">
      <stop offset="0" stop-color="#FFFFFF"/>
      <stop offset="1" stop-color="#FFFFFF" stop-opacity="0"/>
    </linearGradient>
    <linearGradient id="Gradient_15" gradientUnits="userSpaceOnUse" x1="302.544" y1="-415.655" x2="373.454" y2="-369.678" gradientTransform="matrix(1.452, 0, 0, 1.286, -383.21, 574.384)">
      <stop offset="0" stop-color="#FFFFFF"/>
      <stop offset="1" stop-color="#FFFFFF" stop-opacity="0"/>
    </linearGradient>
    <linearGradient id="Gradient_16" gradientUnits="userSpaceOnUse" x1="151.835" y1="200.117" x2="142.886" y2="179.775">
      <stop offset="0" stop-color="#5D5B58"/>
      <stop offset="1" stop-color="#5D5B58" stop-opacity="0"/>
    </linearGradient>
    <linearGradient id="Gradient_17" gradientUnits="userSpaceOnUse" x1="122.062" y1="224.681" x2="113.113" y2="204.339" gradientTransform="matrix(0.917, -0.399, 0.399, 0.917, -4.08, 7.972)">
      <stop offset="0" stop-color="#74726E"/>
      <stop offset="1" stop-color="#5D5B58" stop-opacity="0"/>
    </linearGradient>
    <linearGradient id="Gradient_18" gradientUnits="userSpaceOnUse" x1="245.753" y1="213.561" x2="330.297" y2="401.911" gradientTransform="matrix(1.088, 0, 0, 1.088, -187.963, -218.272)">
      <stop offset="0" stop-color="#8EA3B2"/>
      <stop offset="1" stop-color="#3D4D66"/>
    </linearGradient>
    <linearGradient id="Gradient_19" gradientUnits="userSpaceOnUse" x1="290.026" y1="353.861" x2="269.617" y2="314.087" gradientTransform="matrix(1.088, 0, 0, 1.088, -187.963, -218.272)">
      <stop offset="0" stop-color="#8EA3B2"/>
      <stop offset="1" stop-color="#3D4D66"/>
    </linearGradient>
    <linearGradient id="Gradient_20" gradientUnits="userSpaceOnUse" x1="363.968" y1="449.864" x2="222.99" y2="234.474" gradientTransform="matrix(1.088, 0, 0, 1.088, -187.963, -218.272)">
      <stop offset="0" stop-color="#8EA3B2"/>
      <stop offset="1" stop-color="#DCE6E9"/>
    </linearGradient>
    <linearGradient id="Gradient_21" gradientUnits="userSpaceOnUse" x1="257.66" y1="267.572" x2="302.919" y2="380.1" gradientTransform="matrix(1.088, 0, 0, 1.088, -187.963, -218.272)">
      <stop offset="0" stop-color="#788996"/>
      <stop offset="1" stop-color="#DCEAEA"/>
    </linearGradient>
    <radialGradient id="Gradient_22" gradientUnits="userSpaceOnUse" cx="331.586" cy="411.243" r="217.305" gradientTransform="matrix(1.088, 0, 0, 1.088, -187.963, -218.272)">
      <stop offset="0" stop-color="#A3BBCB"/>
      <stop offset="1" stop-color="#F3F8F9"/>
    </radialGradient>
    <radialGradient id="Gradient_23" gradientUnits="userSpaceOnUse" cx="272.973" cy="408.689" r="72.512" gradientTransform="matrix(1.088, 0, 0, 1.088, -187.963, -218.272)">
      <stop offset="0" stop-color="#8498A6"/>
      <stop offset="1" stop-color="#F3F8F9"/>
    </radialGradient>
    <linearGradient id="Gradient_24" gradientUnits="userSpaceOnUse" x1="232.825" y1="502.92" x2="386.439" y2="628.607" gradientTransform="matrix(1, 0, 0, 1, -216.016, -443.219)">
      <stop offset="0" stop-color="#FFFFFF"/>
      <stop offset="0.074" stop-color="#FEF2DF"/>
      <stop offset="0.235" stop-color="#FCD18F"/>
      <stop offset="0.388" stop-color="#FAAF3E"/>
      <stop offset="1" stop-color="#CE5C0B"/>
    </linearGradient>
    <linearGradient id="Gradient_25" gradientUnits="userSpaceOnUse" x1="252.13" y1="524.38" x2="408.347" y2="638.231" gradientTransform="matrix(1, 0, 0, 1, -216.016, -443.219)">
      <stop offset="0" stop-color="#FFFFFF"/>
      <stop offset="0.074" stop-color="#FEF2DF"/>
      <stop offset="0.235" stop-color="#FCD18F"/>
      <stop offset="0.388" stop-color="#FAAF3E"/>
      <stop offset="1" stop-color="#CE5C0B"/>
    </linearGradient>
    <linearGradient id="Gradient_26" gradientUnits="userSpaceOnUse" x1="316.255" y1="529.413" x2="345.55" y2="641.237" gradientTransform="matrix(1, 0, 0, 1, -216.016, -443.219)">
      <stop offset="0.399" stop-color="#FFFFFF"/>
      <stop offset="0.561" stop-color="#FCFDFD"/>
      <stop offset="0.678" stop-color="#F3F7F8"/>
      <stop offset="0.782" stop-color="#E3ECEF"/>
      <stop offset="0.877" stop-color="#CDDDE2"/>
      <stop offset="0.966" stop-color="#B0CAD2"/>
      <stop offset="1" stop-color="#A3C1CB"/>
    </linearGradient>
    <linearGradient id="Gradient_27" gradientUnits="userSpaceOnUse" x1="-2023.306" y1="1211.116" x2="-2089.303" y2="1211.116" gradientTransform="matrix(-0.5, -0.866, -0.866, 0.5, 166.842, -2307.755)">
      <stop offset="0" stop-color="#FAAF3E"/>
      <stop offset="1" stop-color="#E96712"/>
    </linearGradient>
    <linearGradient id="Gradient_28" gradientUnits="userSpaceOnUse" x1="6209.962" y1="-5317.105" x2="6245.384" y2="-5271.117" gradientTransform="matrix(-0.5, -0.866, -0.866, 0.5, 382.857, -1864.536)">
      <stop offset="0" stop-color="#FAAF3E"/>
      <stop offset="1" stop-color="#E96712"/>
    </linearGradient>
    <linearGradient id="Gradient_29" gradientUnits="userSpaceOnUse" x1="1185.526" y1="2376.753" x2="1186.437" y2="2380.233">
      <stop offset="0.399" stop-color="#FFFFFF"/>
      <stop offset="0.561" stop-color="#FCFDFD"/>
      <stop offset="0.678" stop-color="#F3F7F8"/>
      <stop offset="0.782" stop-color="#E3ECEF"/>
      <stop offset="0.877" stop-color="#CDDDE2"/>
      <stop offset="0.966" stop-color="#B0CAD2"/>
      <stop offset="1" stop-color="#A3C1CB"/>
    </linearGradient>
    <linearGradient id="Gradient_30" gradientUnits="userSpaceOnUse" x1="238.49" y1="492.881" x2="416.318" y2="638.379" gradientTransform="matrix(1, 0, 0, 1, -216.016, -443.219)">
      <stop offset="0" stop-color="#FFFFFF"/>
      <stop offset="0.074" stop-color="#FEF2DF"/>
      <stop offset="0.235" stop-color="#FCD18F"/>
      <stop offset="0.388" stop-color="#FAAF3E"/>
      <stop offset="1" stop-color="#CE5C0B"/>
    </linearGradient>
    <linearGradient id="Gradient_31" gradientUnits="userSpaceOnUse" x1="260.837" y1="517.724" x2="441.678" y2="649.52" gradientTransform="matrix(1, 0, 0, 1, -216.016, -443.219)">
      <stop offset="0" stop-color="#FFFFFF"/>
      <stop offset="0.074" stop-color="#FEF2DF"/>
      <stop offset="0.235" stop-color="#FCD18F"/>
      <stop offset="0.388" stop-color="#FAAF3E"/>
      <stop offset="1" stop-color="#CE5C0B"/>
    </linearGradient>
    <linearGradient id="Gradient_32" gradientUnits="userSpaceOnUse" x1="335.071" y1="523.55" x2="368.983" y2="653" gradientTransform="matrix(1, 0, 0, 1, -216.016, -443.219)">
      <stop offset="0.399" stop-color="#FFFFFF"/>
      <stop offset="0.561" stop-color="#FCFDFD"/>
      <stop offset="0.678" stop-color="#F3F7F8"/>
      <stop offset="0.782" stop-color="#E3ECEF"/>
      <stop offset="0.877" stop-color="#CDDDE2"/>
      <stop offset="0.966" stop-color="#B0CAD2"/>
      <stop offset="1" stop-color="#A3C1CB"/>
    </linearGradient>
    <linearGradient id="Gradient_33" gradientUnits="userSpaceOnUse" x1="1375.409" y1="2731.939" x2="1376.465" y2="2735.967">
      <stop offset="0.399" stop-color="#FFFFFF"/>
      <stop offset="0.561" stop-color="#FCFDFD"/>
      <stop offset="0.678" stop-color="#F3F7F8"/>
      <stop offset="0.782" stop-color="#E3ECEF"/>
      <stop offset="0.877" stop-color="#CDDDE2"/>
      <stop offset="0.966" stop-color="#B0CAD2"/>
      <stop offset="1" stop-color="#A3C1CB"/>
    </linearGradient>
  </defs>
  <g id="Layer_1" display="none">
    <path d="M230.417,228.077 C230.423,239.569 182.118,248.886 122.528,248.886 C62.938,248.886 14.633,239.569 14.639,228.077 C14.633,216.585 62.938,207.268 122.528,207.268 C182.118,207.268 230.423,216.585 230.417,228.077 z" fill="url(#Gradient_1)" id="path9025"/>
    <g id="path7796">
      <path d="M224.641,119.029 C227.379,123.383 232.621,133.662 232.621,138.992 C232.621,150.352 225.222,159.908 214.747,165.101 C216.129,168.586 217.369,172.149 217.369,176.049 C217.369,194.645 200.286,209.737 179.237,209.737 C172.856,209.737 167.127,207.978 161.84,205.526 C157.197,219.505 143.172,229.95 125.854,229.95 C108.536,229.95 94.51,219.505 89.867,205.526 C84.581,207.978 78.851,209.737 72.47,209.737 C51.421,209.737 34.339,194.645 34.339,176.049 C34.339,172.149 35.578,168.586 36.96,165.101 C26.486,159.908 19.086,150.352 19.086,138.992 C19.086,132.948 21.091,118.719 24.175,113.635 C20.862,108.809 19.176,103.613 19.176,98.072 C19.176,86.712 26.576,77.156 37.05,71.963 C35.668,68.478 34.429,64.915 34.429,61.015 C34.429,42.419 51.512,27.327 72.56,27.327 C78.941,27.327 84.671,29.086 89.957,31.538 C94.601,17.559 108.626,7.114 125.944,7.114 C143.262,7.114 157.287,17.559 161.93,31.538 C167.217,29.086 172.946,27.327 179.328,27.327 C200.376,27.327 217.459,42.419 217.459,61.015 C217.459,64.915 216.219,68.478 214.837,71.963 C225.312,77.156 232.711,86.712 232.711,98.072 C232.711,103.254 227.239,114.761 224.641,119.029 z" fill="#C4C5C2"/>
      <path d="M224.641,119.029 C227.379,123.383 232.621,133.662 232.621,138.992 C232.621,150.352 225.222,159.908 214.747,165.101 C216.129,168.586 217.369,172.149 217.369,176.049 C217.369,194.645 200.286,209.737 179.237,209.737 C172.856,209.737 167.127,207.978 161.84,205.526 C157.197,219.505 143.172,229.95 125.854,229.95 C108.536,229.95 94.51,219.505 89.867,205.526 C84.581,207.978 78.851,209.737 72.47,209.737 C51.421,209.737 34.339,194.645 34.339,176.049 C34.339,172.149 35.578,168.586 36.96,165.101 C26.486,159.908 19.086,150.352 19.086,138.992 C19.086,132.948 21.091,118.719 24.175,113.635 C20.862,108.809 19.176,103.613 19.176,98.072 C19.176,86.712 26.576,77.156 37.05,71.963 C35.668,68.478 34.429,64.915 34.429,61.015 C34.429,42.419 51.512,27.327 72.56,27.327 C78.941,27.327 84.671,29.086 89.957,31.538 C94.601,17.559 108.626,7.114 125.944,7.114 C143.262,7.114 157.287,17.559 161.93,31.538 C167.217,29.086 172.946,27.327 179.328,27.327 C200.376,27.327 217.459,42.419 217.459,61.015 C217.459,64.915 216.219,68.478 214.837,71.963 C225.312,77.156 232.711,86.712 232.711,98.072 C232.711,103.254 227.239,114.761 224.641,119.029 z" fill-opacity="0" stroke="#6D6E6A" stroke-width="7.594" stroke-miterlimit="2"/>
    </g>
    <g id="g7800">
      <path d="M153.024,40.151 C153.024,53.32 140.94,63.996 126.034,63.996 C111.127,63.996 99.044,53.32 99.044,40.151 C99.044,26.982 111.127,16.306 126.034,16.306 C140.94,16.306 153.024,26.982 153.024,40.151 z" fill="#C4C5C2" id="path7802"/>
      <path d="M153.024,40.151 C153.024,53.32 140.94,63.996 126.034,63.996 C111.127,63.996 99.044,53.32 99.044,40.151 C99.044,26.982 111.127,16.306 126.034,16.306 C140.94,16.306 153.024,26.982 153.024,40.151 z" fill="url(#Gradient_2)" id="path7804"/>
    </g>
    <path d="M52.777,57.185 L207.006,57.185 L207.006,118.5 L52.777,118.5 z" fill="#C4C5C2" id="rect7806"/>
    <path d="M75.912,98.062 C75.912,109.35 65.554,118.501 52.777,118.501 C40.001,118.501 29.643,109.35 29.643,98.062 C29.643,86.774 40.001,77.624 52.777,77.624 C65.554,77.624 75.912,86.774 75.912,98.062 z" fill="#C4C5C2" id="path7808"/>
    <g id="g7810">
      <path d="M207.004,60.589 C207.004,73.758 194.921,84.434 180.014,84.434 C165.108,84.434 153.024,73.758 153.024,60.589 C153.024,47.42 165.108,36.744 180.014,36.744 C194.921,36.744 207.004,47.42 207.004,60.589 z" fill="#C4C5C2" id="path7812"/>
      <path d="M207.004,60.59 C207.004,73.759 194.92,84.434 180.014,84.434 C165.108,84.434 153.024,73.759 153.024,60.59 C153.024,47.42 165.108,36.745 180.014,36.745 C194.92,36.745 207.004,47.42 207.004,60.59 z" fill="url(#Gradient_3)" id="path7814"/>
    </g>
    <g id="g7816">
      <path d="M99.044,60.589 C99.044,73.759 86.96,84.434 72.054,84.434 C57.147,84.434 45.063,73.759 45.063,60.589 C45.063,47.42 57.147,36.745 72.054,36.745 C86.96,36.745 99.044,47.42 99.044,60.589 z" fill="#C4C5C2" id="path7818"/>
      <path d="M99.044,60.589 C99.044,73.759 86.96,84.434 72.054,84.434 C57.147,84.434 45.063,73.759 45.063,60.589 C45.063,47.42 57.147,36.745 72.054,36.745 C86.96,36.745 99.044,47.42 99.044,60.589 z" fill="url(#Gradient_4)" id="path7820"/>
    </g>
    <g id="g7822">
      <path d="M118.081,36.958 C90.479,36.958 68.198,56.855 68.198,81.241 C68.198,97.392 78.604,110.793 93.26,118.498 L143.144,118.498 C157.8,110.793 168.206,97.179 168.206,81.028 C168.206,56.642 145.684,36.958 118.081,36.958 z" fill="#C4C5C2" id="path7824"/>
      <path d="M118.322,36.745 C90.654,36.745 68.198,56.584 68.198,81.028 C68.198,97.218 78.569,110.775 93.26,118.498 L143.385,118.498 C158.076,110.775 168.447,97.218 168.447,81.028 C168.447,56.584 145.991,36.745 118.322,36.745 z" fill="url(#Gradient_5)" id="path7826"/>
    </g>
    <path d="M75.913,98.061 C75.913,109.349 65.555,118.5 52.778,118.5 C40.002,118.5 29.644,109.349 29.644,98.061 C29.644,86.773 40.002,77.623 52.778,77.623 C65.555,77.623 75.913,86.773 75.913,98.061 z" fill="url(#Gradient_6)" id="path7828"/>
    <g id="g7832">
      <path d="M183.871,91.249 C183.871,106.3 170.061,118.5 153.025,118.5 C135.989,118.5 122.179,106.3 122.179,91.249 C122.179,76.199 135.989,63.998 153.025,63.998 C170.061,63.998 183.871,76.199 183.871,91.249 z" fill="#C4C5C2" id="path7834"/>
      <path d="M183.871,91.249 C183.871,106.3 170.061,118.5 153.025,118.5 C135.989,118.5 122.179,106.3 122.179,91.249 C122.179,76.199 135.989,63.998 153.025,63.998 C170.061,63.998 183.871,76.199 183.871,91.249 z" fill="url(#Gradient_7)" id="path7836"/>
    </g>
    <g id="g8014">
      <path d="M152.933,197.348 C152.933,184.179 140.849,173.503 125.943,173.503 C111.036,173.503 98.952,184.179 98.952,197.348 C98.952,210.517 111.036,221.193 125.943,221.193 C140.849,221.193 152.933,210.517 152.933,197.348 z" fill="#C4C5C2" id="path8016"/>
      <path d="M152.933,197.348 C152.933,184.179 140.849,173.503 125.943,173.503 C111.036,173.503 98.952,184.179 98.952,197.348 C98.952,210.517 111.036,221.193 125.943,221.193 C140.849,221.193 152.933,210.517 152.933,197.348 z" fill="url(#Gradient_8)" id="path8018"/>
    </g>
    <path d="M52.685,180.315 L206.914,180.315 L206.914,119 L52.685,119 z" fill="#C4C5C2" id="rect8020"/>
    <path d="M75.822,139.437 C75.822,128.149 65.464,118.999 52.687,118.999 C39.91,118.999 29.553,128.149 29.553,139.437 C29.553,150.725 39.91,159.875 52.687,159.875 C65.464,159.875 75.822,150.725 75.822,139.437 z" fill="#C4C5C2" id="path8022"/>
    <g id="g8024">
      <path d="M206.913,176.91 C206.913,163.741 194.829,153.066 179.923,153.066 C165.017,153.066 152.933,163.741 152.933,176.91 C152.933,190.079 165.017,200.755 179.923,200.755 C194.829,200.755 206.913,190.079 206.913,176.91 z" fill="#C4C5C2" id="path8026"/>
      <path d="M206.913,176.91 C206.913,163.741 194.829,153.065 179.923,153.065 C165.016,153.065 152.933,163.741 152.933,176.91 C152.933,190.079 165.016,200.754 179.923,200.754 C194.829,200.754 206.913,190.079 206.913,176.91 z" fill="url(#Gradient_9)" id="path8028"/>
    </g>
    <g id="g8030">
      <path d="M98.952,176.91 C98.952,163.741 86.869,153.065 71.962,153.065 C57.056,153.065 44.972,163.741 44.972,176.91 C44.972,190.079 57.056,200.754 71.962,200.754 C86.869,200.754 98.952,190.079 98.952,176.91 z" fill="#C4C5C2" id="path8032"/>
      <path d="M98.952,176.91 C98.952,163.741 86.869,153.065 71.962,153.065 C57.056,153.065 44.972,163.741 44.972,176.91 C44.972,190.079 57.056,200.754 71.962,200.754 C86.869,200.754 98.952,190.079 98.952,176.91 z" fill="url(#Gradient_10)" id="path8034"/>
    </g>
    <g id="g8036">
      <path d="M117.99,200.542 C90.388,200.542 68.107,180.644 68.107,156.258 C68.107,140.108 78.513,126.706 93.169,119.001 L143.053,119.001 C157.709,126.706 168.115,140.32 168.115,156.471 C168.115,180.857 145.592,200.542 117.99,200.542 z" fill="#C4C5C2" id="path8038"/>
      <path d="M118.231,200.754 C90.563,200.754 68.107,180.916 68.107,156.471 C68.107,140.281 78.478,126.725 93.169,119.001 L143.294,119.001 C157.985,126.725 168.356,140.281 168.356,156.471 C168.356,180.916 145.9,200.754 118.231,200.754 z" fill="url(#Gradient_11)" id="path8040"/>
    </g>
    <path d="M75.823,139.438 C75.823,128.151 65.465,119 52.688,119 C39.911,119 29.554,128.151 29.554,139.438 C29.554,150.726 39.911,159.877 52.688,159.877 C65.465,159.877 75.823,150.726 75.823,139.438 z" fill="url(#Gradient_12)" id="path8042"/>
    <g id="g8046">
      <path d="M163.068,132.526 C163.068,117.476 149.258,105.275 132.222,105.275 C115.187,105.275 101.376,117.476 101.376,132.526 C101.376,147.576 115.187,159.777 132.222,159.777 C149.258,159.777 163.068,147.576 163.068,132.526 z" fill="#C4C5C2" id="path8048"/>
      <path d="M163.068,132.526 C163.068,117.476 149.258,105.275 132.222,105.275 C115.187,105.275 101.376,117.476 101.376,132.526 C101.376,147.576 115.187,159.777 132.222,159.777 C149.258,159.777 163.068,147.576 163.068,132.526 z" fill="url(#Gradient_13)" id="path8050"/>
    </g>
    <g id="g9017">
      <path d="M211.797,117.53 C211.797,102.48 197.987,90.279 180.951,90.279 C163.916,90.279 150.106,102.48 150.106,117.53 C150.106,132.581 163.916,144.781 180.951,144.781 C197.987,144.781 211.797,132.581 211.797,117.53 z" fill="#C4C5C2" id="path9019"/>
      <path d="M211.797,117.53 C211.797,102.48 197.987,90.279 180.951,90.279 C163.916,90.279 150.106,102.48 150.106,117.53 C150.106,132.581 163.916,144.781 180.951,144.781 C197.987,144.781 211.797,132.581 211.797,117.53 z" fill="url(#Gradient_14)" id="path9021"/>
    </g>
    <g id="path7798">
      <path d="M32.276,114.81 C27.249,119.768 26.297,132.635 26.297,139.992 C26.297,149.64 34.472,158.099 44.204,162.838 C42.92,166.019 40.956,170.248 40.956,173.807 C40.956,190.776 54.93,203.843 74.891,203.843 C80.82,203.843 88.287,200.209 93.199,197.972 C98.137,214.297 108.905,224.33 124.995,224.33 C141.086,224.33 153.355,213.88 158.123,198.116 C163.035,200.353 172.191,203.987 178.12,203.987 C197.677,203.987 210.204,190.776 210.204,173.807 C210.204,170.248 208.078,165.27 206.794,162.09 C216.526,157.351 224.7,150.358 224.7,139.992 C224.7,133.201 220.408,127.425 215.788,119.411 C220.254,111.303 224.787,104.345 224.787,97.204 C224.787,86.839 216.613,79.845 206.881,75.106 C208.165,71.926 210.291,66.949 210.291,63.389 C210.291,46.421 194.743,33.656 175.187,33.655 C169.257,33.655 163.122,36.844 158.21,39.08 C153.442,23.317 141.676,14.204 125.586,14.204 C109.495,14.204 98.224,22.899 93.286,39.224 C88.374,36.987 81.914,33.799 75.985,33.799 C56.023,33.799 41.043,46.42 41.043,63.389 C41.043,66.949 43.006,72.07 44.291,75.25 C34.558,79.989 26.384,87.557 26.384,97.204 C26.384,104.346 27.533,109.9 32.276,114.81 z" fill="url(#Gradient_15)"/>
      <path d="M32.276,114.81 C27.249,119.768 26.297,132.635 26.297,139.992 C26.297,149.64 34.472,158.099 44.204,162.838 C42.92,166.019 40.956,170.248 40.956,173.807 C40.956,190.776 54.93,203.843 74.891,203.843 C80.82,203.843 88.287,200.209 93.199,197.972 C98.137,214.297 108.905,224.33 124.995,224.33 C141.086,224.33 153.355,213.88 158.123,198.116 C163.035,200.353 172.191,203.987 178.12,203.987 C197.677,203.987 210.204,190.776 210.204,173.807 C210.204,170.248 208.078,165.27 206.794,162.09 C216.526,157.351 224.7,150.358 224.7,139.992 C224.7,133.201 220.408,127.425 215.788,119.411 C220.254,111.303 224.787,104.345 224.787,97.204 C224.787,86.839 216.613,79.845 206.881,75.106 C208.165,71.926 210.291,66.949 210.291,63.389 C210.291,46.421 194.743,33.656 175.187,33.655 C169.257,33.655 163.122,36.844 158.21,39.08 C153.442,23.317 141.676,14.204 125.586,14.204 C109.495,14.204 98.224,22.899 93.286,39.224 C88.374,36.987 81.914,33.799 75.985,33.799 C56.023,33.799 41.043,46.42 41.043,63.389 C41.043,66.949 43.006,72.07 44.291,75.25 C34.558,79.989 26.384,87.557 26.384,97.204 C26.384,104.346 27.533,109.9 32.276,114.81 z" fill-opacity="0" stroke="#FFFFFF" stroke-width="5.062" stroke-opacity="0.502" stroke-miterlimit="2"/>
    </g>
    <path d="M165.412,210.913 C145.989,207.747 142.886,179.775 142.886,179.775 C142.886,179.775 151.528,200.921 166.587,203.266 C166.587,203.266 165.412,210.913 165.412,210.913 z" fill="url(#Gradient_16)" id="path8044"/>
    <path d="M214.303,169.701 C195.232,174.553 181.217,150.147 181.217,150.147 C181.217,150.147 197.584,166.084 212.327,162.22 C212.327,162.22 214.303,169.701 214.303,169.701 z" fill="url(#Gradient_17)" id="path9069"/>
  </g>
  <g id="Layer_3" display="none">
    <g id="path8737">
      <path d="M73.099,182.316 L99.65,244.108 L122.044,232.204 L135.057,207.46 C138.087,207.878 157.92,243.141 157.92,243.141 L180.314,231.244 L179.806,221.342 L188.319,227.694 L210.713,215.79 C216.802,211.199 222.393,205.871 227.356,199.879 L215.544,180.292 L222.445,181.121 L244.839,169.218 C246.16,165.605 247.315,161.871 248.287,158.029 C249.316,153.993 250.111,149.928 250.694,145.857 L224.858,130.758 C224.972,128.065 224.966,125.39 224.84,122.708 L227.922,121.256 L250.316,109.359 C248.996,101.126 246.846,93.042 243.947,85.261 L215.03,84.998 C213.657,82.23 212.154,79.515 210.524,76.885 L225.984,52.695 C220.964,46.126 215.338,40.135 209.072,34.692 L186.678,46.589 L183.453,48.59 C181.401,47.207 179.28,45.898 177.096,44.668 L178.176,15.265 C174.534,13.715 170.79,12.337 166.948,11.143 C163.083,9.948 159.206,8.976 155.347,8.204 L132.953,20.107 L129.843,26.202 L119.94,6.883 C112.102,7.849 104.475,9.639 97.174,12.2 L74.78,24.098 L75.38,34.537 L66.69,28.614 L44.296,40.518 L61.545,76.856 L32.695,73.906 L10.301,85.804 C10.301,85.804 36.08,123.915 36.263,126.888 L27.133,130.941 L4.738,142.844 L73.099,182.316 z" fill="url(#Gradient_18)"/>
      <path d="M73.099,182.316 L99.65,244.108 L122.044,232.204 L135.057,207.46 C138.087,207.878 157.92,243.141 157.92,243.141 L180.314,231.244 L179.806,221.342 L188.319,227.694 L210.713,215.79 C216.802,211.199 222.393,205.871 227.356,199.879 L215.544,180.292 L222.445,181.121 L244.839,169.218 C246.16,165.605 247.315,161.871 248.287,158.029 C249.316,153.993 250.111,149.928 250.694,145.857 L224.858,130.758 C224.972,128.065 224.966,125.39 224.84,122.708 L227.922,121.256 L250.316,109.359 C248.996,101.126 246.846,93.042 243.947,85.261 L215.03,84.998 C213.657,82.23 212.154,79.515 210.524,76.885 L225.984,52.695 C220.964,46.126 215.338,40.135 209.072,34.692 L186.678,46.589 L183.453,48.59 C181.401,47.207 179.28,45.898 177.096,44.668 L178.176,15.265 C174.534,13.715 170.79,12.337 166.948,11.143 C163.083,9.948 159.206,8.976 155.347,8.204 L132.953,20.107 L129.843,26.202 L119.94,6.883 C112.102,7.849 104.475,9.639 97.174,12.2 L74.78,24.098 L75.38,34.537 L66.69,28.614 L44.296,40.518 L61.545,76.856 L32.695,73.906 L10.301,85.804 C10.301,85.804 36.08,123.915 36.263,126.888 L27.133,130.941 L4.738,142.844 L73.099,182.316 z" fill-opacity="0" stroke="#192333" stroke-width="5.253" stroke-linecap="round" stroke-linejoin="round"/>
    </g>
    <g id="g8739">
      <g id="path8746">
        <path d="M113.365,118.798 C113.365,114.407 114.571,110.422 116.515,106.952 C116.452,106.946 116.395,106.923 116.332,106.918 C102.331,105.974 90.97,116.62 90.97,130.701 C90.97,144.783 102.325,157.098 116.332,158.218 C126.006,158.99 134.318,154.068 138.595,146.292 C124.651,145.103 113.365,132.834 113.365,118.798 z" fill="url(#Gradient_19)"/>
        <path d="M113.365,118.798 C113.365,114.407 114.571,110.422 116.515,106.952 C116.452,106.946 116.395,106.923 116.332,106.918 C102.331,105.974 90.97,116.62 90.97,130.701 C90.97,144.783 102.325,157.098 116.332,158.218 C126.006,158.99 134.318,154.068 138.595,146.292 C124.651,145.103 113.365,132.834 113.365,118.798 z" fill-opacity="0" stroke="#192333" stroke-width="4.827" stroke-linecap="round" stroke-linejoin="round"/>
      </g>
      <g id="path8748">
        <path d="M116.515,106.952 C114.571,110.422 113.365,114.413 113.365,118.798 C113.365,132.834 124.651,145.109 138.589,146.292 C140.499,142.822 141.682,138.831 141.682,134.435 C141.682,120.244 130.425,107.987 116.515,106.952 z" fill="#FFFFFF"/>
        <path d="M116.515,106.952 C114.571,110.422 113.365,114.413 113.365,118.798 C113.365,132.834 124.651,145.109 138.589,146.292 C140.499,142.822 141.682,138.831 141.682,134.435 C141.682,120.244 130.425,107.987 116.515,106.952 z" fill-opacity="0" stroke="#192333" stroke-width="4.827" stroke-linecap="round" stroke-linejoin="round"/>
      </g>
    </g>
    <path d="M204.962,211.777 L227.356,199.879" fill-opacity="0" stroke="#717A80" stroke-width="4.203" stroke-linecap="round" stroke-linejoin="round" id="line8750"/>
    <path d="M228.294,157.749 L250.688,145.852" fill-opacity="0" stroke="#939FA6" stroke-width="4.203" stroke-linecap="round" stroke-linejoin="round" id="line8752"/>
    <path d="M202.463,142.661 L224.857,130.758" fill-opacity="0" stroke="#939FA6" stroke-width="4.203" stroke-linecap="round" stroke-linejoin="round" id="line8754"/>
    <path d="M221.553,97.158 L243.947,85.261" fill-opacity="0" stroke="#A8B6BE" stroke-width="4.203" stroke-linecap="round" stroke-linejoin="round" id="line8756"/>
    <path d="M192.635,96.901 L215.03,84.998" fill-opacity="0" stroke="#C3D2DD" stroke-width="4.203" stroke-linecap="round" stroke-linejoin="round" id="line8758"/>
    <path d="M188.13,88.782 L210.524,76.885" fill-opacity="0" stroke="#C3D2DD" stroke-width="4.203" stroke-linecap="round" stroke-linejoin="round" id="line8760"/>
    <path d="M203.589,64.593 L225.984,52.69" fill-opacity="0" stroke="#C3D2DD" stroke-width="4.203" stroke-linecap="round" stroke-linejoin="round" id="line8762"/>
    <path d="M154.696,56.566 L177.09,44.663" fill-opacity="0" stroke="#C3D2DD" stroke-width="4.203" stroke-linecap="round" stroke-linejoin="round" id="line8764"/>
    <path d="M155.782,27.162 L178.176,15.265" fill-opacity="0" stroke="#C3D2DD" stroke-width="4.203" stroke-linecap="round" stroke-linejoin="round" id="line8766"/>
    <path d="M111.096,45.229 L123.514,38.625" fill-opacity="0" stroke="#7A8C9A" stroke-width="2.627" id="line8768"/>
    <path d="M97.54,18.792 L119.935,6.889" fill-opacity="0" stroke="#C3D2DD" stroke-width="4.203" stroke-linecap="round" stroke-linejoin="round" id="line8770"/>
    <path d="M73.099,182.316 L99.65,244.108 L122.044,232.204 L135.057,207.46 C138.087,207.878 157.92,243.141 157.92,243.141 L180.314,231.244 L179.806,221.342 L188.319,227.694 L210.713,215.79 C216.802,211.199 222.393,205.871 227.356,199.879 L215.544,180.292 L222.445,181.121 L244.839,169.218 C246.16,165.605 247.315,161.871 248.287,158.029 C249.316,153.993 250.111,149.928 250.694,145.857 L224.858,130.758 C224.972,128.065 224.966,125.39 224.84,122.708 L227.922,121.256 L250.316,109.359 C248.996,101.126 246.846,93.042 243.947,85.261 L215.03,84.998 C213.657,82.23 212.154,79.515 210.524,76.885 L225.984,52.695 C220.964,46.126 215.338,40.135 209.072,34.692 L186.678,46.589 L183.453,48.59 C181.401,47.207 179.28,45.898 177.096,44.668 L178.176,15.265 C174.534,13.715 170.79,12.337 166.948,11.143 C163.083,9.948 159.206,8.976 155.347,8.204 L132.953,20.107 L129.843,26.202 L119.94,6.883 C112.102,7.849 104.475,9.639 97.174,12.2 L74.78,24.098 L75.38,34.537 L66.69,28.614 L44.296,40.518 L61.545,76.856 L32.695,73.906 L10.301,85.804 C10.301,85.804 36.08,123.915 36.263,126.888 L27.133,130.941 L4.738,142.844 L73.099,182.316 z" fill-opacity="0" stroke="#192333" stroke-width="5.253" stroke-linecap="round" stroke-linejoin="round" id="path8772"/>
    <g id="path8781">
      <path d="M202.462,142.662 C202.588,139.529 202.565,136.407 202.371,133.291 L227.921,121.256 C226.6,113.024 224.451,104.939 221.552,97.158 L192.634,96.901 C191.262,94.128 189.759,91.418 188.129,88.783 L203.589,64.599 C198.569,58.024 192.943,52.038 186.677,46.589 L162.579,61.54 C160.052,59.756 157.422,58.098 154.695,56.572 L155.775,27.162 C152.133,25.613 148.389,24.235 144.547,23.046 C140.682,21.851 136.805,20.873 132.946,20.107 L119.957,45.612 C116.984,45.326 114.028,45.2 111.095,45.229 L97.54,18.792 C89.701,19.753 82.074,21.548 74.773,24.104 L76.494,53.05 C73.836,54.291 71.246,55.674 68.753,57.183 L44.301,40.524 C38.206,45.189 32.615,50.517 27.652,56.435 L43.609,81.202 C41.991,83.614 40.504,86.141 39.155,88.76 L10.306,85.81 C8.957,89.326 7.773,92.962 6.773,96.695 C5.784,100.411 5.006,104.145 4.429,107.884 L30.208,122.543 C30.076,125.533 30.105,128.529 30.293,131.502 L4.749,142.839 C6.064,150.631 8.202,158.304 11.078,165.731 L39.915,166.525 C41.31,169.292 42.837,171.985 44.495,174.621 L29.081,197.478 C34.095,203.979 39.755,210.039 45.999,215.556 L70.062,201.943 C72.589,203.773 75.231,205.505 77.958,207.112 L76.689,235.829 C80.394,237.59 84.207,239.168 88.117,240.569 C91.959,241.953 95.813,243.125 99.661,244.091 L112.673,219.347 C115.703,219.758 118.728,220.016 121.729,220.119 L135.096,247.344 C142.952,246.784 150.601,245.366 157.931,243.13 L156.404,213.458 C159.011,212.292 161.55,210.988 164.008,209.542 L188.329,227.682 C194.418,223.086 200.01,217.757 204.972,211.766 L189.112,185.484 C190.713,183.014 192.194,180.441 193.538,177.754 L222.455,181.104 C223.776,177.485 224.931,173.758 225.903,169.916 C226.932,165.874 227.727,161.809 228.31,157.738 L202.462,142.662 z M116.326,158.212 C102.325,157.098 90.965,144.777 90.965,130.696 C90.965,116.614 102.319,105.969 116.326,106.912 C130.322,107.855 141.682,120.176 141.682,134.429 C141.682,148.682 130.328,159.333 116.326,158.212 z" fill="url(#Gradient_20)"/>
      <path d="M202.462,142.662 C202.588,139.529 202.565,136.407 202.371,133.291 L227.921,121.256 C226.6,113.024 224.451,104.939 221.552,97.158 L192.634,96.901 C191.262,94.128 189.759,91.418 188.129,88.783 L203.589,64.599 C198.569,58.024 192.943,52.038 186.677,46.589 L162.579,61.54 C160.052,59.756 157.422,58.098 154.695,56.572 L155.775,27.162 C152.133,25.613 148.389,24.235 144.547,23.046 C140.682,21.851 136.805,20.873 132.946,20.107 L119.957,45.612 C116.984,45.326 114.028,45.2 111.095,45.229 L97.54,18.792 C89.701,19.753 82.074,21.548 74.773,24.104 L76.494,53.05 C73.836,54.291 71.246,55.674 68.753,57.183 L44.301,40.524 C38.206,45.189 32.615,50.517 27.652,56.435 L43.609,81.202 C41.991,83.614 40.504,86.141 39.155,88.76 L10.306,85.81 C8.957,89.326 7.773,92.962 6.773,96.695 C5.784,100.411 5.006,104.145 4.429,107.884 L30.208,122.543 C30.076,125.533 30.105,128.529 30.293,131.502 L4.749,142.839 C6.064,150.631 8.202,158.304 11.078,165.731 L39.915,166.525 C41.31,169.292 42.837,171.985 44.495,174.621 L29.081,197.478 C34.095,203.979 39.755,210.039 45.999,215.556 L70.062,201.943 C72.589,203.773 75.231,205.505 77.958,207.112 L76.689,235.829 C80.394,237.59 84.207,239.168 88.117,240.569 C91.959,241.953 95.813,243.125 99.661,244.091 L112.673,219.347 C115.703,219.758 118.728,220.016 121.729,220.119 L135.096,247.344 C142.952,246.784 150.601,245.366 157.931,243.13 L156.404,213.458 C159.011,212.292 161.55,210.988 164.008,209.542 L188.329,227.682 C194.418,223.086 200.01,217.757 204.972,211.766 L189.112,185.484 C190.713,183.014 192.194,180.441 193.538,177.754 L222.455,181.104 C223.776,177.485 224.931,173.758 225.903,169.916 C226.932,165.874 227.727,161.809 228.31,157.738 L202.462,142.662 z M116.326,158.212 C102.325,157.098 90.965,144.777 90.965,130.696 C90.965,116.614 102.319,105.969 116.326,106.912 C130.322,107.855 141.682,120.176 141.682,134.429 C141.682,148.682 130.328,159.333 116.326,158.212 z" fill-opacity="0" stroke="#596C80" stroke-width="4.827" stroke-linecap="round" stroke-linejoin="round"/>
    </g>
    <path d="M71.692,84.741 C59.806,95.952 53.254,111.36 53.254,128.146 C53.254,162.689 81.44,193.282 116.075,196.329 C132.712,197.798 148.44,192.602 160.349,181.687 C172.624,170.442 179.387,154.576 179.387,137.002 C179.387,101.435 151.173,70.848 116.492,68.801 C99.569,67.8 83.652,73.46 71.692,84.741 z M116.578,190.629 C84.813,187.833 58.971,159.796 58.971,128.14 C58.971,112.955 64.877,99.016 75.608,88.903 C86.414,78.715 100.815,73.598 116.161,74.501 C147.874,76.371 173.676,104.402 173.676,136.996 C173.676,152.941 167.576,167.32 156.496,177.462 C145.782,187.279 131.603,191.961 116.578,190.629 z" fill="url(#Gradient_21)" id="path8790"/>
    <path d="M12.444,89.006 L38.858,91.607 C39.967,91.721 41.122,91.035 41.688,90.069 L45.976,82.791 C46.782,81.436 46.41,79.538 45.055,78.737 C43.695,77.937 42.037,78.246 41.23,79.606 C41.23,79.606 38.858,83.631 37.617,85.73 C34.427,85.404 19.619,83.889 19.619,83.889 L12.444,89.006 z" fill="#EFEEEC" id="path8798"/>
    <path d="M97.191,15.957 C89.238,16.934 81.377,18.77 73.83,21.405 C72.681,21.805 71.915,22.892 71.915,24.104 C71.915,24.161 73.338,48.196 73.527,51.398 C71.961,52.232 70.445,53.039 68.93,53.856 C66.403,52.124 49.726,40.769 49.726,40.769 L44.466,44.097 L67.141,59.55 C68.016,60.145 69.291,60.134 70.228,59.63 L77.706,55.646 C78.65,55.137 79.353,54.096 79.353,53.021 C79.353,52.976 78.009,30.347 77.775,26.322 C83.71,24.378 89.81,22.949 96.013,22.068 C97.745,25.453 108.551,46.532 108.551,46.532 C109.02,47.447 110.1,48.047 111.118,48.087 L119.682,48.459 C120.797,48.511 121.992,47.91 122.501,46.91 C122.501,46.91 132.706,26.871 134.461,23.435 C137.223,24.132 143.706,25.773 143.706,25.773 C143.706,25.773 150.315,28.203 152.848,29.123 C152.717,32.702 151.836,56.52 151.836,56.543 C151.836,57.538 152.454,58.533 153.294,59.053 L160.932,63.873 C161.858,64.462 163.156,64.542 164.088,63.97 C164.088,63.97 182.881,52.312 186.208,50.243 C191.211,54.748 195.836,59.653 199.987,64.919 C197.963,68.092 185.722,87.245 185.722,87.245 C185.436,87.685 185.305,88.211 185.305,88.748 C185.305,89.286 185.442,89.829 185.699,90.292 L190.073,98.17 C190.576,99.068 191.582,99.748 192.606,99.76 C192.606,99.76 215.646,99.965 219.357,100 C221.638,106.432 223.376,113.024 224.559,119.678 C220.969,121.376 201.153,130.713 201.153,130.713 C200.147,131.181 199.518,132.331 199.518,133.445 C199.518,133.451 199.604,142.542 199.604,142.542 C199.615,143.548 200.152,144.617 201.022,145.131 C201.022,145.131 222.055,157.418 225.103,159.202 C224.577,161.837 223.119,169.224 223.119,169.224 C223.119,169.23 221.386,174.844 220.414,178.005 C216.435,177.548 193.852,174.935 193.852,174.935 C192.714,174.804 191.537,175.501 190.965,176.485 L186.7,183.94 C186.425,184.415 186.277,184.992 186.277,185.552 C186.277,186.055 186.397,186.558 186.648,186.97 C186.648,186.97 199.324,207.975 201.336,211.314 C197.322,215.962 192.88,220.193 188.101,223.966 C184.842,221.536 165.7,207.26 165.7,207.26 C164.826,206.614 163.511,206.592 162.539,207.095 L155.221,210.857 C154.22,211.371 153.471,212.486 153.534,213.612 L154.941,240.889 L160.652,238.557 C160.652,238.505 159.503,218.392 159.337,215.15 C160.869,214.367 162.213,213.675 163.711,212.903 C166.238,214.79 186.608,229.975 186.608,229.975 C187.626,230.735 189.027,230.73 190.039,229.964 C196.339,225.218 202.096,219.713 207.162,213.595 C207.596,213.069 207.819,212.423 207.819,211.771 C207.819,211.263 207.688,210.748 207.408,210.291 C207.408,210.291 193.961,188.016 192.411,185.444 C193.258,183.963 194.155,182.419 195.07,180.818 C198.334,181.19 222.112,183.946 222.112,183.946 C223.479,184.1 224.719,183.408 225.125,182.093 L228.653,170.619 C228.653,170.613 231.123,158.15 231.123,158.15 C231.157,157.967 231.174,157.789 231.174,157.612 C231.174,156.64 230.625,155.794 229.733,155.274 C229.733,155.274 207.796,142.462 205.304,140.998 C205.287,139.226 205.264,137.019 205.241,135.092 C208.14,133.731 229.139,123.835 229.139,123.835 C230.157,123.355 230.78,122.337 230.78,121.245 C230.78,121.102 230.768,120.942 230.745,120.799 C229.402,112.452 227.212,104.162 224.228,96.152 C223.816,95.043 222.758,94.3 221.575,94.288 C221.575,94.288 197.271,94.077 194.315,94.042 C193.44,92.47 192.337,90.492 191.445,88.885 C193.069,86.347 205.99,66.125 205.99,66.125 C206.293,65.656 206.441,65.119 206.441,64.587 C206.441,63.976 206.247,63.358 205.853,62.844 C200.741,56.166 194.921,49.963 188.547,44.417 C187.597,43.594 186.231,43.485 185.162,44.148 C185.162,44.148 165.243,56.503 162.585,58.155 C160.984,57.143 159.12,55.971 157.605,55.017 C157.719,52.089 158.634,27.162 158.634,27.122 C158.634,25.939 158.022,24.927 156.896,24.515 L145.387,20.302 L133.501,17.295 C132.203,16.957 130.997,17.609 130.396,18.798 C130.396,18.798 119.694,39.809 118.236,42.679 C116.418,42.593 114.577,42.513 112.873,42.439 C111.53,39.809 100.078,17.477 100.078,17.477 C99.541,16.414 98.386,15.802 97.191,15.957 z" fill="url(#Gradient_22)" id="path8807"/>
    <path d="M110.129,218.032 L98.191,240.723 L106.516,237.173 C106.516,237.173 112.776,225.281 114.302,222.365 C116.801,222.577 120.043,222.857 120.043,222.857 C118.47,219.964 120.231,217.14 121.809,217.271 L113.05,216.528 C111.901,216.437 110.666,217.02 110.129,218.032 z" fill="url(#Gradient_23)" id="path8816"/>
  </g>
  <g id="Layer_4" display="none">
    <g id="path20844">
      <path d="M93.58,46.437 L174.082,29.6 C176.562,29.117 178.752,30.761 178.978,33.283 L191.455,177.645 C191.675,180.167 189.842,182.604 187.368,183.093 L24.855,225.056 C22.371,225.54 20.19,223.896 19.97,221.374 L6.978,67.692 C6.926,67.057 7.005,66.421 7.194,65.822 L16.371,41.93 L79.312,29.863 L93.58,46.437 z" fill="url(#Gradient_24)"/>
      <path d="M93.58,46.437 L174.082,29.6 C176.562,29.117 178.752,30.761 178.978,33.283 L191.455,177.645 C191.675,180.167 189.842,182.604 187.368,183.093 L24.855,225.056 C22.371,225.54 20.19,223.896 19.97,221.374 L6.978,67.692 C6.926,67.057 7.005,66.421 7.194,65.822 L16.371,41.93 L79.312,29.863 L93.58,46.437 z" fill-opacity="0" stroke="#7F390B" stroke-width="7.88" stroke-linecap="round" stroke-linejoin="round"/>
    </g>
    <path d="M173.683,31.176 C173.683,31.176 95.77,47.467 93.291,47.977 C91.783,46.227 79.138,31.518 79.138,31.518 L17.616,43.312 L8.565,66.868 L8.554,67.356 L8.523,67.656 L21.414,220.612 C21.409,220.607 22.638,222.934 22.638,222.934 C22.659,222.955 25.234,223.486 25.234,223.486 L186.501,181.848 C188.544,181.438 190.094,179.447 189.905,177.351 L177.523,34.05 C177.523,34.039 176.294,31.723 176.294,31.723 C176.262,31.702 173.688,31.171 173.688,31.171 L173.236,31.082 L173.683,31.176 z M92.918,52.579 C92.918,52.579 170.646,36.33 173.241,35.789 C173.467,38.431 185.508,177.74 185.508,177.74 C185.508,177.74 28.554,218.08 25.706,218.805 C25.465,215.968 12.962,68.044 12.941,67.819 C13.182,67.183 20.085,49.227 20.868,47.194 C22.77,46.831 75.056,36.803 77.452,36.351 C78.928,38.074 91.636,52.846 91.636,52.846 L92.918,52.579 z" fill="url(#Gradient_25)" id="path20859"/>
    <g id="path20876">
      <path d="M192.742,177.314 C192.39,179.836 189.979,182.431 187.368,183.103 L24.855,225.067 C22.244,225.739 20.411,224.258 20.763,221.726 L36.954,106.567 C37.301,104.051 39.712,101.456 42.328,100.778 L204.835,58.814 C207.441,58.147 209.279,59.644 208.927,62.161 L192.742,177.314 z" fill="url(#Gradient_26)"/>
      <path d="M192.742,177.314 C192.39,179.836 189.979,182.431 187.368,183.103 L24.855,225.067 C22.244,225.739 20.411,224.258 20.763,221.726 L36.954,106.567 C37.301,104.051 39.712,101.456 42.328,100.778 L204.835,58.814 C207.441,58.147 209.279,59.644 208.927,62.161 L192.742,177.314 z" fill-opacity="0" stroke="#525B66" stroke-width="7.88"/>
    </g>
    <path d="M171.424,132.398 L149.67,94.705 C149.67,94.705 140.581,83.374 127.485,78.893 C103.535,70.692 80.714,78.246 80.714,78.246 L120.992,64.924 C120.992,64.924 150.815,54.302 182.74,61.43 C202.928,65.938 211.081,77.936 211.081,77.936 L224.751,101.613 L171.424,132.398 z" fill="url(#Gradient_27)" id="path20887"/>
    <g id="path20880">
      <path d="M217.228,91.523 L245.68,78.525 C247.009,78.115 248.448,78.861 248.858,80.206 C249.068,80.884 248.974,81.603 248.653,82.192 L248.664,82.134 L211.029,154.677 C209.715,157.167 206.626,158.124 204.142,156.81 C204.142,156.81 132.066,118.314 132.176,118.377 L132.066,118.314 C131.477,118.03 131.01,117.494 130.805,116.837 C130.39,115.498 131.152,114.058 132.486,113.654 L155.868,105.153 C141.49,75.53 108.5,73.004 83.872,77.049 C82.495,77.427 81.418,77.847 80.714,78.252 L120.992,64.929 C139.872,58.41 195.324,47.117 217.228,91.523 z" fill="url(#Gradient_28)"/>
      <path d="M217.228,91.523 L245.68,78.525 C247.009,78.115 248.448,78.861 248.858,80.206 C249.068,80.884 248.974,81.603 248.653,82.192 L248.664,82.134 L211.029,154.677 C209.715,157.167 206.626,158.124 204.142,156.81 C204.142,156.81 132.066,118.314 132.176,118.377 L132.066,118.314 C131.477,118.03 131.01,117.494 130.805,116.837 C130.39,115.498 131.152,114.058 132.486,113.654 L155.868,105.153 C141.49,75.53 108.5,73.004 83.872,77.049 C82.495,77.427 81.418,77.847 80.714,78.252 L120.992,64.929 C139.872,58.41 195.324,47.117 217.228,91.523 z" fill-opacity="0" stroke="#590B08" stroke-width="5.253"/>
    </g>
    <path d="M207.723,152.115 L137.46,114.622" fill-opacity="0" stroke="#FAAF3E" stroke-width="5.253" id="line20891"/>
    <path d="M160.077,104.208 L153.573,93.607" fill-opacity="0" stroke="#FAAF3E" stroke-width="5.253" id="line20893"/>
    <path d="M153.573,93.607 C145.404,80.616 135.641,74.616 108.745,71.622" fill-opacity="0" stroke="#FAAF3E" stroke-width="5.253" stroke-linecap="round" id="path20895"/>
    <g id="line20912">
      <path d="M24.388,55.247 L77.961,44.961" fill="url(#Gradient_29)"/>
      <path d="M24.388,55.247 L77.961,44.961" fill-opacity="0" stroke="#FAAF3E" stroke-width="10.507"/>
    </g>
  </g>
  <g id="Layer_4_Copy" display="none">
    <g id="path20844">
      <path d="M111.346,34.308 L204.537,14.817 C207.407,14.257 209.943,16.161 210.205,19.08 L224.648,186.197 C224.904,189.116 222.781,191.938 219.917,192.503 L31.789,241.081 C28.912,241.641 26.388,239.737 26.133,236.818 L11.094,58.913 C11.033,58.177 11.124,57.441 11.343,56.748 L21.967,29.09 L94.828,15.121 L111.346,34.308 z" fill="url(#Gradient_30)"/>
      <path d="M111.346,34.308 L204.537,14.817 C207.407,14.257 209.943,16.161 210.205,19.08 L224.648,186.197 C224.904,189.116 222.781,191.938 219.917,192.503 L31.789,241.081 C28.912,241.641 26.388,239.737 26.133,236.818 L11.094,58.913 C11.033,58.177 11.124,57.441 11.343,56.748 L21.967,29.09 L94.828,15.121 L111.346,34.308 z" fill-opacity="0" stroke="#7F390B" stroke-width="9.122" stroke-linecap="round" stroke-linejoin="round"/>
    </g>
    <path d="M204.075,16.641 C204.075,16.641 113.881,35.499 111.011,36.089 C109.266,34.064 94.628,17.036 94.628,17.036 L23.408,30.689 L12.93,57.958 L12.918,58.524 L12.881,58.87 L27.805,235.936 C27.799,235.93 29.222,238.624 29.222,238.624 C29.247,238.649 32.226,239.263 32.226,239.263 L218.913,191.062 C221.279,190.587 223.073,188.283 222.854,185.856 L208.52,19.968 C208.52,19.955 207.097,17.273 207.097,17.273 C207.061,17.249 204.081,16.635 204.081,16.635 L203.558,16.531 L204.075,16.641 z M110.579,41.417 C110.579,41.417 200.56,22.607 203.564,21.98 C203.825,25.039 217.764,186.306 217.764,186.306 C217.764,186.306 36.07,233.005 32.774,233.844 C32.494,230.56 18.02,59.32 17.996,59.059 C18.276,58.323 26.267,37.537 27.173,35.183 C29.374,34.764 89.902,23.154 92.676,22.631 C94.384,24.626 109.095,41.727 109.095,41.727 L110.579,41.417 z" fill="url(#Gradient_31)" id="path20859"/>
    <g id="path20876">
      <path d="M226.138,185.814 C225.731,188.733 222.939,191.737 219.917,192.515 L31.789,241.094 C28.766,241.872 26.644,240.157 27.051,237.226 L45.794,103.915 C46.195,101.002 48.987,97.998 52.015,97.214 L240.138,48.635 C243.154,47.863 245.282,49.596 244.875,52.509 L226.138,185.814 z" fill="url(#Gradient_32)"/>
      <path d="M226.138,185.814 C225.731,188.733 222.939,191.737 219.917,192.515 L31.789,241.094 C28.766,241.872 26.644,240.157 27.051,237.226 L45.794,103.915 C46.195,101.002 48.987,97.998 52.015,97.214 L240.138,48.635 C243.154,47.863 245.282,49.596 244.875,52.509 L226.138,185.814 z" fill-opacity="0" stroke="#525B66" stroke-width="9.122"/>
    </g>
    <g id="line20912">
      <path d="M31.247,44.506 L93.265,32.599" fill="url(#Gradient_33)"/>
      <path d="M31.247,44.506 L93.265,32.599" fill-opacity="0" stroke="#FAAF3E" stroke-width="12.163"/>
    </g>
  </g>
  <g id="Layer_2">
    <path d="M234.694,2.968 L234.694,253.032 L141.337,253.032 L141.337,199.685 L131.334,189.682 L114.663,189.682 L114.663,253.032 L21.306,253.032 L21.306,2.968 L234.694,2.968 z" fill="#FFFFFF"/>
    <path d="M228.026,9.636 L228.026,246.363 L148.005,246.363 L148.005,196.351 L134.668,183.014 L107.995,183.014 L107.995,219.69 L107.995,219.69 L107.995,246.363 L27.974,246.363 L27.974,9.636 L228.026,9.636 z M201.352,36.31 L54.648,36.31 L54.648,219.69 L81.321,219.69 L81.321,156.341 L148.005,156.341 L174.679,183.014 L174.679,219.69 L201.352,219.69 L201.352,169.677 C201.352,169.677 174.679,143.004 174.679,143.004 L201.352,116.33 L201.352,36.31 z M174.679,62.983 L174.679,102.994 L148.005,129.667 L81.321,129.667 L81.321,62.983 L174.679,62.983 z M148.005,89.657 L107.995,89.657 L107.995,102.994 L148.005,102.994 L148.005,89.657 z" fill="#F34C00"/>
  </g>
</svg>
